<svg xmlns="http://www.w3.org/2000/svg" width="69.524" height="63.79" viewBox="0 0 69.524 63.79">
  <path id="Icon_material-favorite-border" data-name="Icon material-favorite-border" d="M59.4,13.5a20.817,20.817,0,0,0-15.642,7.266A20.817,20.817,0,0,0,28.119,13.5,18.933,18.933,0,0,0,9,32.619c0,13.14,11.82,23.847,29.721,40.116l5.04,4.554L48.8,72.7c17.9-16.233,29.721-26.94,29.721-40.08A18.933,18.933,0,0,0,59.4,13.5ZM44.1,67.554l-.348.348-.348-.348c-16.545-14.982-27.462-24.9-27.462-34.935A11.88,11.88,0,0,1,28.119,20.451a13.59,13.59,0,0,1,12.408,8.205h6.5a13.5,13.5,0,0,1,12.372-8.2A11.88,11.88,0,0,1,71.565,32.619C71.568,42.666,60.654,52.572,44.1,67.554Z" transform="translate(-8.999 -13.499)" fill="#cb2020"/>
</svg>

