<svg xmlns="http://www.w3.org/2000/svg" xmlns:xlink="http://www.w3.org/1999/xlink" width="72" height="72" viewBox="0 0 72 72">
  <defs>
    <clipPath id="clip-path">
      <rect id="Rectangle_42" data-name="Rectangle 42" width="72" height="72" fill="#cb2020"/>
    </clipPath>
  </defs>
  <g id="home" clip-path="url(#clip-path)">
    <g id="Group_217" data-name="Group 217">
      <path id="Path_43" data-name="Path 43" d="M54,37.782a2.439,2.439,0,0,1,.873-1.8,3.444,3.444,0,0,1,4.26,0,2.436,2.436,0,0,1,.87,1.8v20.34a7.089,7.089,0,0,1-2.64,5.4A9.9,9.9,0,0,1,51,65.748H21a9.9,9.9,0,0,1-6.363-2.235,7.089,7.089,0,0,1-2.64-5.4V37.773a2.436,2.436,0,0,1,.87-1.8,3.444,3.444,0,0,1,4.26,0,2.439,2.439,0,0,1,.873,1.8v20.34a2.436,2.436,0,0,0,.87,1.8,3.417,3.417,0,0,0,2.13.735H51a3.417,3.417,0,0,0,2.13-.735,2.436,2.436,0,0,0,.87-1.8Z" fill="#cb2020"/>
      <path id="Path_44" data-name="Path 44" d="M7.7,31.7a2.9,2.9,0,0,1-2.223.48,3,3,0,0,1-1.2-5.4L31.83,7.482a.093.093,0,0,0,.06-.03,7.638,7.638,0,0,1,8.22,0,.093.093,0,0,0,.06.03l27.549,19.3A3,3,0,0,1,64.3,31.7L36.78,12.435a1.779,1.779,0,0,0-1.56,0Z" fill="#cb2020"/>
    </g>
  </g>
</svg>

