<svg xmlns="http://www.w3.org/2000/svg" xmlns:xlink="http://www.w3.org/1999/xlink" width="72" height="72" viewBox="0 0 72 72">
  <defs>
    <clipPath id="clip-path">
      <rect id="Rectangle_264" data-name="Rectangle 264" width="72" height="72" fill="#576574"/>
    </clipPath>
  </defs>
  <g id="news" clip-path="url(#clip-path)">
    <g id="Group_356" data-name="Group 356">
      <path id="Path_132" data-name="Path 132" d="M0,0H72V72H0Z" fill="none"/>
      <path id="Path_133" data-name="Path 133" d="M13.854,57a2.7,2.7,0,0,1,1.938.87,3.27,3.27,0,0,1,0,4.26,2.7,2.7,0,0,1-1.938.87,7.533,7.533,0,0,1-5.562-2.52A9.138,9.138,0,0,1,6,54.36V17.64a9.138,9.138,0,0,1,2.292-6.12A7.533,7.533,0,0,1,13.854,9H58.146a7.533,7.533,0,0,1,5.562,2.52A9.138,9.138,0,0,1,66,17.64V54.36a9.138,9.138,0,0,1-2.292,6.12A7.533,7.533,0,0,1,58.146,63H27.819a2.7,2.7,0,0,1-1.938-.87,3.27,3.27,0,0,1,0-4.26A2.7,2.7,0,0,1,27.819,57H58.146a2.223,2.223,0,0,0,1.689-.78,2.7,2.7,0,0,0,.711-1.86V17.64a2.7,2.7,0,0,0-.711-1.86A2.223,2.223,0,0,0,58.146,15H13.854a2.223,2.223,0,0,0-1.689.78,2.7,2.7,0,0,0-.711,1.86V54.36a2.7,2.7,0,0,0,.711,1.86,2.223,2.223,0,0,0,1.689.78Zm5-33.429H29.142a1.323,1.323,0,0,1,1.287,1.287V35.142a1.323,1.323,0,0,1-1.287,1.287H18.858a1.323,1.323,0,0,1-1.287-1.287V24.858A1.323,1.323,0,0,1,18.858,23.571ZM54.375,45a2.547,2.547,0,0,1,1.863.87,3.357,3.357,0,0,1,0,4.26,2.547,2.547,0,0,1-1.863.87H17.625a2.544,2.544,0,0,1-1.863-.87,3.357,3.357,0,0,1,0-4.26A2.544,2.544,0,0,1,17.625,45Zm-.132-19.5a1.1,1.1,0,0,1,.879.45,1.647,1.647,0,0,1,0,2.1,1.1,1.1,0,0,1-.879.45H41.757a1.1,1.1,0,0,1-.879-.45,1.647,1.647,0,0,1,0-2.1,1.1,1.1,0,0,1,.879-.45ZM18.858,21H29.142A3.861,3.861,0,0,1,33,24.858V35.142A3.861,3.861,0,0,1,29.142,39H18.858A3.861,3.861,0,0,1,15,35.142V24.858A3.861,3.861,0,0,1,18.858,21ZM54.243,34.5a1.1,1.1,0,0,1,.879.45,1.647,1.647,0,0,1,0,2.1,1.1,1.1,0,0,1-.879.45H41.757a1.1,1.1,0,0,1-.879-.45,1.647,1.647,0,0,1,0-2.1,1.1,1.1,0,0,1,.879-.45Z" fill="#576574" fill-rule="evenodd"/>
    </g>
  </g>
</svg>

