<svg xmlns="http://www.w3.org/2000/svg" xmlns:xlink="http://www.w3.org/1999/xlink" width="72" height="72" viewBox="0 0 72 72">
  <defs>
    <clipPath id="clip-path">
      <rect id="Rectangle_264" data-name="Rectangle 264" width="72" height="72" fill="#576574"/>
    </clipPath>
  </defs>
  <g id="profil-2" clip-path="url(#clip-path)">
    <path id="Path_68" data-name="Path 68" d="M18,21a18.027,18.027,0,1,1,5.28,12.72A18.027,18.027,0,0,1,18,21Zm6,0a11.985,11.985,0,1,1,3.51,8.49A11.985,11.985,0,0,1,24,21Z" fill="#576574" fill-rule="evenodd"/>
    <path id="Path_69" data-name="Path 69" d="M50.22,41.91a3.078,3.078,0,0,1-1.83-1.41,3.165,3.165,0,0,1-.3-2.28,3.078,3.078,0,0,1,1.41-1.83,3.165,3.165,0,0,1,2.28-.3,23.1,23.1,0,0,1,6.03,2.67,19.311,19.311,0,0,1,4.65,4.17,21.318,21.318,0,0,1,3.27,5.73,35.292,35.292,0,0,1,2.04,8.01.6.6,0,0,1,.03.21l.09,1.17v.18a10.8,10.8,0,0,1-3.12,7.68A11.1,11.1,0,0,1,56.97,69H15.03a11.1,11.1,0,0,1-7.8-3.09,10.8,10.8,0,0,1-3.12-7.68v-.18l.09-1.17a.6.6,0,0,1,.03-.21,34.563,34.563,0,0,1,2.07-8.1,21.483,21.483,0,0,1,3.36-5.79,19.83,19.83,0,0,1,4.59-4.08,23,23,0,0,1,5.97-2.61,3.165,3.165,0,0,1,2.28.3,3.078,3.078,0,0,1,1.41,1.83,3.165,3.165,0,0,1-.3,2.28,3.078,3.078,0,0,1-1.83,1.41,15.39,15.39,0,0,0-4.32,1.89,13.2,13.2,0,0,0-3.15,2.76,15.234,15.234,0,0,0-2.4,4.17,29.823,29.823,0,0,0-1.74,6.66l-.06.99a4.59,4.59,0,0,0,1.35,3.24A4.893,4.893,0,0,0,14.97,63H57.03a4.893,4.893,0,0,0,3.51-1.38,4.59,4.59,0,0,0,1.35-3.24l-.06-.99a30.618,30.618,0,0,0-1.68-6.57,15.771,15.771,0,0,0-2.37-4.14,13.713,13.713,0,0,0-3.18-2.85,14.649,14.649,0,0,0-4.38-1.92Z" fill="#576574"/>
  </g>
</svg>

